<?xml version="1.0" encoding="UTF-8"?>
<svg width="941px" height="299px" viewBox="0 0 941 299" version="1.1" xmlns="http://www.w3.org/2000/svg" xmlns:xlink="http://www.w3.org/1999/xlink">
    <!-- Generator: Sketch 49.2 (51160) - http://www.bohemiancoding.com/sketch -->
    <title>PersonalLogo</title>
    <desc>Created with Sketch.</desc>
    <defs></defs>
    <g id="PersonalLogo" stroke="none" stroke-width="1" fill="none" fill-rule="evenodd">
        <g id="noun_Horse_1373795_000000" transform="translate(100.000000, 28.000000)" fill="#000000" fill-rule="nonzero">
            <path d="M49.9208449,0.00662486749 C50.2148717,-0.0198952519 50.5952208,0.0384490107 50.9168707,0.0888372375 C61.5509737,2.78036415 72.609782,11.9892104 78.0587073,22.7969546 C95.792748,9.81880383 114.246583,-2.53824579 147.614511,2.6581064 C149.505101,3.00260275 150.377619,5.7689164 149.02568,7.13337655 C142.921768,13.312034 140.178315,18.9915827 140.144317,22.0509437 C140.552024,25.8345691 144.23307,26.4681348 147.033629,26.5262138 C159.795774,25.2169155 168.302897,22.5481959 177.329281,22.5481959 C186.400022,22.5481959 195.682186,25.4349109 209.03609,34.8964939 C210.770238,36.0421631 210.15642,39.2717832 208.123199,39.7035307 C202.118903,41.3952492 191.892241,43.6971955 191.771656,50.3943213 C192.174316,53.7557464 203.218237,57.6539387 208.040064,60.2566233 C217.384912,65.3235573 228.101884,72.3466153 231.031793,84.2074735 C231.308556,85.3287441 230.798059,86.6300864 229.786628,87.1909869 C228.775994,87.7518874 227.355794,87.5214276 226.549412,86.6937346 C219.421851,82.7788346 210.192011,84.2957855 210.115251,89.9257416 C210.993613,95.3331939 216.902569,99.6925712 220.158379,102.8543 C228.434158,110.896526 239,122.309831 239,140.562833 C238.973439,142.65421 235.89054,143.889252 234.434749,142.386091 C232.677759,140.607652 228.692859,138.735332 224.806499,138.242323 C216.961269,169.571335 195.96612,193.96905 167.286154,210.426905 C143.0976,226.526209 111.265412,241.288899 76.5646686,243.991299 C75.531989,244.078815 74.5566805,243.49882 74.074604,242.58255 C66.8583305,228.305709 68.6068206,214.451599 71.2525308,201.061856 C72.7585219,193.439708 78.608248,183.703642 84.1177316,172.221226 C92.2346781,157.419021 94.5688314,146.784188 94.7420071,135.176067 C95.0572825,123.335364 88.2479187,112.947857 80.2167633,109.650346 C77.4725129,116.566899 73.7795148,122.298692 68.1813184,126.391012 C62.125747,130.818281 54.1586028,133.415661 44.1938292,134.844565 C40.2014921,143.020983 33.1897359,151.336632 24.356182,151.170881 C18.8477608,153.532498 13.6694889,151.686432 9.74780457,148.104625 C4.98866036,142.613104 1.74214738,136.303967 0.451563519,130.452038 C-1.05256828,125.353014 1.45901044,120.574089 4.18679317,116.777469 C6.97460306,112.897734 10.2370525,109.362072 11.158974,107.495321 C18.9850796,83.7627311 26.9500989,62.4097917 40.2097259,43.5985407 C43.1826638,38.613819 42.6554341,34.2517898 42.0357733,30.255473 C41.124476,24.7209893 38.6973603,18.3508566 34.8975882,11.9401482 C33.980182,10.3531842 35.3047635,8.00297126 37.1387791,7.96213028 C42.8137358,8.59251351 47.9088727,12.7405254 52.4940444,15.9181661 C52.7304346,11.4365311 50.896419,7.10844763 48.3439368,4.48136461 C46.706736,2.19718673 47.8645164,0.191735301 49.9208449,0.00609446511 L49.9208449,0.00662486749 Z M47.8459239,74.1802163 C42.5924853,76.4216968 32.1591812,86.721846 34.5655796,90.0922879 C37.2216484,92.7442999 41.3451954,92.8615188 45.189855,90.0922879 C47.8459239,87.440276 50.0323998,81.0075559 47.8459239,74.1802163 Z" id="Shape"></path>
        </g>
        <polygon id="Horn" stroke="#000000" fill="#000000" points="143 76.5776047 39 58 134.818629 83.6677489"></polygon>
        <text id="JG" font-family="YesevaOne-Regular, Yeseva One" font-size="72" font-weight="normal" letter-spacing="-1.7364707" fill="#FFFFFF">
            <tspan x="209.736471" y="164">JG</tspan>
        </text>
        <text id="Josh-Gachnang" fill="#000000" font-family="YesevaOne-Regular, Yeseva One" font-size="105" font-weight="normal" line-spacing="87" letter-spacing="-2.63000011">
            <tspan x="378" y="145">Josh</tspan>
            <tspan x="378" y="232">Gachnan</tspan>
            <tspan x="825.264999" y="232">g</tspan>
        </text>
    </g>
</svg>